<svg xmlns="http://www.w3.org/2000/svg" viewBox="0 0 92.97 93.65"><defs><style>.cls-1{fill:#cd2239;}.cls-2{fill:#fff;}</style></defs><g id="Capa_2" data-name="Capa 2"><g id="Capa_1-2" data-name="Capa 1"><path class="cls-1" d="M88.84,16.48a31.34,31.34,0,0,1-9.79,1.06C67.56,17.11,57.8,12.61,49.53,4.77c-1.11-1-1.68-1.08-2.94-.11-12.05,9.2-25.41,14.45-40.88,13-1.23-.13-1.47.23-1.47,1.33A67.13,67.13,0,0,0,5,29.07C8.86,55,21.58,75.1,44.15,88.83a3.73,3.73,0,0,0,4.17.11A64.15,64.15,0,0,0,65.85,75.33C77,63.25,83.32,48.85,86.65,33A107.7,107.7,0,0,0,88.84,16.48ZM6.44,15.17c15.1,0,28.28-5.5,40.18-14.44,1.26-.95,2-1,3.15.08,9.4,8.7,20.44,13.61,33.33,14.13a37.06,37.06,0,0,0,8.41-.57c1-.19,1.58-.23,1.44,1.2-1.76,18.32-6.48,35.68-16.64,51.27-7.08,10.87-16,19.79-27.53,26.07a4.42,4.42,0,0,1-5.09-.13c-24-14.85-37.81-36.39-42.57-64A85.15,85.15,0,0,1,0,16.78C0,15.51.21,15,1.67,15.14A39.91,39.91,0,0,0,6.44,15.17Z"/><path class="cls-2" d="M11.16,19.92a20.41,20.41,0,0,1-3,0c-1.43-.2-1.88.27-1.79,1.71A82.07,82.07,0,0,0,7.65,32.54c4.57,23.36,16.6,41.64,37.1,54.16a2.73,2.73,0,0,0,3.12.1,60.94,60.94,0,0,0,15.56-12C77.85,59.59,84.21,40.91,86.5,20.52c.12-1.08-.1-1.33-1.23-1.21C71.78,20.77,60,16.65,49.86,7.91c-1.35-1.16-2.15-1.37-3.73-.23C35.71,15.23,24.18,19.73,11.16,19.92Zm77.68-3.44A108.66,108.66,0,0,1,86.65,33C83.32,48.84,77,63.25,65.85,75.32A63.77,63.77,0,0,1,48.32,88.93a3.73,3.73,0,0,1-4.17-.1C21.58,75.1,8.87,55,5,29.06a65.81,65.81,0,0,1-.74-10.12c0-1.11.24-1.46,1.47-1.34,15.47,1.5,28.82-3.74,40.88-12.95,1.26-1,1.83-.94,2.94.11,8.27,7.84,18,12.34,29.52,12.78A31.34,31.34,0,0,0,88.84,16.48Z"/><path class="cls-1" d="M61.06,53.46c0-4.07-1.65-7.55-4-10.74-1.53-2.09-3.26-4-4.87-6.07a10.07,10.07,0,0,1-2.52-6.74c.07-1.4-.1-2.65-1.52-3.25s-2.53.12-3.47,1.1c-5.64,5.94-10,12.64-12.11,20.63-2.14,8.19.62,14.31,7.61,17.38C50.11,70.14,61.06,63.67,61.06,53.46ZM11.16,19.92c13-.18,24.55-4.69,35-12.25,1.58-1.15,2.39-.93,3.74.23C60,16.65,71.76,20.77,85.25,19.31c1.14-.12,1.36.13,1.24,1.21C84.2,40.91,77.84,59.58,63.41,74.83a60.84,60.84,0,0,1-15.55,12,2.74,2.74,0,0,1-3.13-.1C24.24,74.17,12.21,55.89,7.63,32.53A85.5,85.5,0,0,1,6.32,21.59c-.09-1.43.36-1.91,1.8-1.71A19.27,19.27,0,0,0,11.16,19.92Z"/><path class="cls-2" d="M34,51.86c-.29,6.1,2.14,9.88,6.79,12,5.16,2.29,11.1,1.44,14.74-2.11S60,53,57.72,47.75c-1.51-3.42-4.06-6.1-6.39-8.93-2-2.51-3.61-5.2-3.7-8.55,0-.53.32-1.27-.34-1.55s-1.16.43-1.58.87a50.12,50.12,0,0,0-9.9,15.34A22.75,22.75,0,0,0,34,51.86Zm27.06,1.6c0,10.2-11,16.67-20.85,12.33-7-3.08-9.75-9.2-7.61-17.38,2.08-8,6.47-14.7,12.11-20.63.94-1,2.06-1.7,3.47-1.11s1.59,1.86,1.52,3.26a10.08,10.08,0,0,0,2.52,6.73c1.61,2,3.34,4,4.87,6.08C59.41,45.92,61.08,49.39,61.06,53.46Z"/><path class="cls-1" d="M39.57,48.42c-.49,1.58-.84,2.52-1.07,3.49A8.19,8.19,0,0,0,43,60.8a4.18,4.18,0,0,0,4.93-1.5c1.1-1.75-.47-2.58-1.39-3.57a7.57,7.57,0,0,0-1.73-1.27C42.58,53.09,40.47,51.62,39.57,48.42ZM34,51.86a22.53,22.53,0,0,1,1.82-6.93,49.93,49.93,0,0,1,9.9-15.34c.41-.45.83-1.19,1.57-.87s.33,1,.34,1.55c.1,3.35,1.66,6,3.71,8.55,2.32,2.83,4.87,5.51,6.39,8.93,2.3,5.21,1.52,10.33-2.19,14S46,66.12,40.8,63.82C36.13,61.74,33.71,58,34,51.86Z"/><path class="cls-2" d="M39.57,48.42c.9,3.2,3,4.67,5.24,6a8.12,8.12,0,0,1,1.73,1.27c.91,1,2.48,1.82,1.39,3.57A4.19,4.19,0,0,1,43,60.8a8.19,8.19,0,0,1-4.49-8.89C38.73,50.94,39.08,50,39.57,48.42Z"/></g></g></svg>