<svg xmlns="http://www.w3.org/2000/svg" viewBox="0 0 88.39 89.37"><defs><style>.cls-1{fill:#cd2239;}.cls-2{fill:#fff;}</style></defs><g id="Capa_2" data-name="Capa 2"><g id="Capa_1-2" data-name="Capa 1"><path class="cls-1" d="M4.27,21.66A61.07,61.07,0,0,0,5.69,32.72c4.74,22.51,16.69,40,36.54,51.91a3.33,3.33,0,0,0,3.62.16,56.61,56.61,0,0,0,9.6-6.24c19.19-16,26.9-37.35,29.06-61.36.12-1.24-.31-1.31-1.39-1.08a32.64,32.64,0,0,1-11,.46,43,43,0,0,1-25-11.95c-1-.88-1.5-1.15-2.66-.19a41.86,41.86,0,0,1-5.93,4.16c-9.33,5.63-19.27,9-30.29,8.44C3.88,16.84,3.88,16.73,4.27,21.66ZM1.38,14.49C17.56,15.65,31.67,10.25,44.43.69c1.31-1,1.92-.88,3,.16C57.72,10.17,69.67,15,83.62,14.14c.5,0,1,0,1.55-.11,3.35-.43,3.43-.43,3.08,2.85C86,37.65,79.62,56.81,65.7,72.92a66.73,66.73,0,0,1-20,16,2.85,2.85,0,0,1-3.2-.07C19.38,75,6,54.5,1.26,28.21A86.6,86.6,0,0,1,0,16C0,15.07-.2,14,1.38,14.49Z"/><path class="cls-2" d="M10.4,19a16.43,16.43,0,0,1-2.43,0c-1.47-.19-2.08.16-2,1.85.23,2.93.46,5.86,1,8.75C11,52.45,22.5,70.37,42.54,82.67a2.8,2.8,0,0,0,3.2,0A54.71,54.71,0,0,0,54.33,77c18-15,25.52-35.12,28.1-57.62.11-.93-.27-1.08-1.16-1C68.13,19.81,56.8,15.72,47,7.09c-1.08-1-1.66-.81-2.74,0C34.18,14.41,23,18.85,10.4,19Zm-6.13,2.7c-.35-4.93-.35-4.82,4-4.59,11,.58,21-2.81,30.29-8.44a45.5,45.5,0,0,0,5.94-4.16c1.15-1,1.69-.73,2.66.19a42.9,42.9,0,0,0,25,12,32.9,32.9,0,0,0,11-.46c1-.23,1.51-.16,1.39,1.08-2.16,24-9.87,45.4-29.06,61.35a51.56,51.56,0,0,1-9.6,6.25,3.27,3.27,0,0,1-3.62-.16C22.38,72.73,10.4,55.27,5.65,32.76A61.73,61.73,0,0,1,4.27,21.66Z"/><path class="cls-1" d="M52.87,41.82c.46-.39,2,1.11,2.31-.74.69-3.85-1.66-8.63-5.28-10-1.62-.62-2.2-1.39-1.93-3s-.38-2.28-2.16-2.24c-1.61,0-2.54.31-2.19,2.12s-.35,2.39-2.12,2.7A7,7,0,0,0,36.76,34a10,10,0,0,0,3.31,14.15,52.57,52.57,0,0,0,5.21,2.31,12.05,12.05,0,0,1,4.2,2.39,4,4,0,0,1-.93,6.36c-4.12,2.08-8.71-.5-8.79-5.05,0-1.27-.42-1.7-1.62-1.54a17.77,17.77,0,0,1-2.42,0c-.66,0-.81.27-.93.88a9,9,0,0,0,6.82,10.56c1.78.39,2.28,1.16,2,2.78s.27,2.27,2.08,2.23,2.5-.5,2.27-2.35c-.15-1.11-.27-2.19,1.43-2.66a8,8,0,0,0,6.17-7.43c.42-4.21-1-7.56-4.9-9.52C48.51,46,46.2,45.21,44,44.24a6.26,6.26,0,0,1-3.43-2.93,4.17,4.17,0,0,1,.77-4.7,5.76,5.76,0,0,1,5.94-1.23,4,4,0,0,1,2.81,4.28C50.05,41.47,50.48,42.43,52.87,41.82ZM10.4,19C23,18.85,34.21,14.41,44.27,7.05c1-.77,1.66-.92,2.74,0,9.79,8.63,21.16,12.72,34.26,11.29.89-.11,1.27,0,1.16,1C79.89,41.85,72.37,62,54.33,77a54.71,54.71,0,0,1-8.59,5.74,2.8,2.8,0,0,1-3.2,0C22.54,70.37,11,52.45,7,29.52c-.51-2.89-.74-5.82-1-8.75-.11-1.66.46-2,2-1.85A16.43,16.43,0,0,0,10.4,19Z"/><path class="cls-2" d="M52.87,41.82c-2.43.61-2.82-.35-2.74-2.2a4,4,0,0,0-2.81-4.28,5.77,5.77,0,0,0-5.94,1.23,4.13,4.13,0,0,0-.77,4.71A6.05,6.05,0,0,0,44,44.21c2.24,1,4.51,1.77,6.67,2.85,3.89,2,5.32,5.32,4.89,9.52A8,8,0,0,1,49.44,64c-1.7.46-1.54,1.54-1.43,2.65.23,1.85-.46,2.32-2.27,2.36s-2.35-.62-2.08-2.24-.23-2.39-2-2.77a9,9,0,0,1-6.82-10.56c.12-.62.27-.93.93-.89a16.29,16.29,0,0,0,2.42,0c1.2-.12,1.62.27,1.62,1.54.08,4.55,4.67,7.13,8.79,5a3.94,3.94,0,0,0,.92-6.36,12.31,12.31,0,0,0-4.2-2.39,46.06,46.06,0,0,1-5.2-2.31A10,10,0,0,1,36.8,34a7,7,0,0,1,4.74-3.31c1.77-.27,2.46-1,2.12-2.7s.57-2.08,2.19-2.12c1.78,0,2.43.54,2.12,2.24s.31,2.39,1.93,3c3.62,1.39,6,6.17,5.28,10C54.87,42.93,53.33,41.43,52.87,41.82Z"/></g></g></svg>