<svg xmlns="http://www.w3.org/2000/svg" viewBox="0 0 113.35 59.27"><defs><style>.cls-1{fill:#cd2239;}</style></defs><g id="Capa_2" data-name="Capa 2"><g id="Capa_1-2" data-name="Capa 1"><path class="cls-1" d="M89.82,23.86l15.66,2.94c2.08.4,4.16.88,6.26,1.2,1.58.24,2.12.76,1.07,2.23-4.13,5.82-8.25,11.63-12.34,17.48-.72,1-1.13.71-1.5-.17-.49-1.13-.94-2.28-1.35-3.43-.89-2.59-1.38-2.85-3.88-1.89L68.22,52c-6,2.3-12,4.56-18,6.91A3.64,3.64,0,0,1,46,58.22c-3.51-3.07-7.11-6-10.59-9.14a4.25,4.25,0,0,0-4.69-.95C23.7,50.56,16.61,52.9,9.52,55.26c-2.56.85-2.87.66-3.7-1.84-.41-1.23-1-2.39-1.46-3.61-.81-2.23-.31-3.54,1.9-4.15,9.11-2.54,18-5.75,27-8.73a4.17,4.17,0,0,1,4.36,1c3.33,3,6.79,5.78,10.11,8.74a4.1,4.1,0,0,0,4.69.86c12.66-4.86,25.35-9.64,38-14.45,2.42-.92,2.53-1.2,1.56-3.62-.58-1.47-1.14-2.94-1.7-4.41C90.16,24.8,90.08,24.55,89.82,23.86Z"/><path class="cls-1" d="M52.31,39.55c.06-3.87.36-7.69,2.19-11.2a11.74,11.74,0,0,1,6.48-6,6.28,6.28,0,0,1,6.07.63,7.55,7.55,0,0,0,8.55.46C81.34,20.12,85.37,22.77,89,28a2,2,0,0,1-.89,3.24c-1.53.76-3.12,1.41-4.71,2L55.17,44c-2.78,1-2.85,1-2.86-2C52.31,41.2,52.32,40.37,52.31,39.55Z"/><path class="cls-1" d="M63.09,9.56c0-.48,0-1.17.11-1.84.61-4.91,3.41-7.6,8-7.72,5-.12,8.3,2.45,9,7.38A15.57,15.57,0,0,1,77.56,18.9C74.47,23.24,69.19,23.27,66,19A15,15,0,0,1,63.09,9.56Z"/><path class="cls-1" d="M50.54,46.19C46.32,42.57,42.41,39.35,38.66,36c-1.91-1.73-3.72-2.29-6.12-1.1a41.33,41.33,0,0,1-4.85,1.66c-1.24.44-1.91.17-1.61-1.26.65-3.16,1.85-6,4.49-8.08,2.93-2.28,5-2.43,8.26-.57a6.44,6.44,0,0,0,7.35-.27,5.89,5.89,0,0,1,5.09-.78c1.2.3,1.92,1.12,1.48,2.25C50.47,33.56,50.61,39.6,50.54,46.19Z"/><path class="cls-1" d="M12.07,24.06a4.44,4.44,0,0,0-4.66,4.58,4.5,4.5,0,0,0,4.47,4.81,4.82,4.82,0,0,0,4.9-4.73A4.69,4.69,0,0,0,12.07,24.06Zm9.18-2.4c-.16.32-.34.69-.51,1.07-.79,1.78-.32,3.27,1.47,4a1.92,1.92,0,0,1,1.38,2.14,1.78,1.78,0,0,1-1.39,1.91,2.6,2.6,0,0,0-1.5,3.78,1.88,1.88,0,0,1-.32,2.54,1.86,1.86,0,0,1-2.52.37c-1.61-.78-3.16,0-3.84,1.77-.35.92-.74,1.46-1.88,1.44A1.92,1.92,0,0,1,10,39.21a2.7,2.7,0,0,0-4-1.7,1.75,1.75,0,0,1-2.34-.41,1.71,1.71,0,0,1-.48-2.31,2.73,2.73,0,0,0-1.61-4.06C.58,30.36,0,30,0,28.74a1.9,1.9,0,0,1,1.55-2,2.68,2.68,0,0,0,1.68-4,1.81,1.81,0,0,1,.46-2.35A1.76,1.76,0,0,1,6,20c1.9.9,3.2.38,4-1.65a1.82,1.82,0,0,1,2-1.23A1.69,1.69,0,0,1,14,18.27c.87,2.07,2.05,2.48,4.21,1.64C19.31,19.46,21.24,20.52,21.25,21.66Z"/><path class="cls-1" d="M49.59,15.28c-.1,3.31-.83,6.38-3.41,8.73a5.5,5.5,0,0,1-8.33-.55c-3.05-3.79-3.57-8.07-2.15-12.6a6.49,6.49,0,0,1,6.13-4.38,7.16,7.16,0,0,1,6.88,4A10.67,10.67,0,0,1,49.59,15.28Z"/><path class="cls-1" d="M28.74,15.11a2.87,2.87,0,0,0-2.68-2.86A2.8,2.8,0,0,0,23.31,15a2.71,2.71,0,0,0,2.57,2.73A2.78,2.78,0,0,0,28.74,15.11Zm3.64-1.94c-1.18,1.19-1.16,2.44,0,3.83.23.28-.22,1.28-1.15,1.37-1.12.1-1.92.53-1.9,1.91s-1,1.37-1.7.87a2,2,0,0,0-2.87-.07c-.84.61-1.88.49-2-.93-.13-1.09-.6-1.76-1.81-1.8-1.45-.05-1.59-1-.93-1.92a2,2,0,0,0-.06-2.87c-.64-.81-.37-1.75.9-1.86,1.11-.1,1.81-.53,1.9-1.72.1-1.55.88-1.63,2-.91a1.88,1.88,0,0,0,2.58,0c.83-.68,1.84-.67,2,.83.11,1.11.66,1.8,1.83,1.78C32.11,11.68,32.24,12.32,32.38,13.17Z"/></g></g></svg>